<svg width="54" height="12" viewBox="0 0 54 12" fill="none" xmlns="http://www.w3.org/2000/svg">
<path d="M0.0117188 11H3.79883C6.10938 11 7.14844 9.85156 7.14844 8.33398C7.14844 6.80273 6.08203 5.94141 5.09766 5.88672V5.79102C6.00684 5.55859 6.76562 4.93652 6.76562 3.69922C6.76562 2.22949 5.74707 1.10156 3.63477 1.10156H0.0117188V11ZM1.51562 9.71484V6.55664H3.7168C4.90625 6.55664 5.6582 7.31543 5.6582 8.26562C5.6582 9.08594 5.08398 9.70801 3.66211 9.71484H1.51562ZM1.51562 5.38086V2.38672H3.53906C4.72168 2.38672 5.28906 3.00195 5.28906 3.82227C5.28906 4.77246 4.50977 5.37402 3.51172 5.38086H1.51562ZM15.1191 1.10156V7.48633C15.1191 8.82617 14.1963 9.79004 12.6992 9.79688C11.1953 9.79004 10.2588 8.82617 10.2656 7.48633V1.10156H8.76172V7.60938C8.75488 9.6875 10.3135 11.1641 12.6992 11.1641C15.0645 11.1641 16.6299 9.6875 16.623 7.60938V1.10156H15.1191ZM18.1543 2.40039H21.2441V11H22.748V2.40039H25.8242V1.10156H18.1543V2.40039ZM26.8633 2.40039H29.9531V11H31.457V2.40039H34.5332V1.10156H26.8633V2.40039ZM44.2402 6.05078C44.2402 2.88574 42.3398 0.964844 39.7832 0.964844C37.2061 0.964844 35.3125 2.88574 35.3125 6.05078C35.3125 9.20898 37.2061 11.1367 39.7832 11.1367C42.3398 11.1367 44.2402 9.21582 44.2402 6.05078ZM36.8027 6.05078C36.8096 3.64453 38.0742 2.33887 39.7832 2.3457C41.4785 2.33887 42.7432 3.64453 42.75 6.05078C42.7432 8.45703 41.4785 9.7627 39.7832 9.75586C38.0742 9.7627 36.8096 8.45703 36.8027 6.05078ZM53.9199 1.10156H52.4434V8.34766H52.3477L47.3301 1.10156H45.9355V11H47.4395V3.76758H47.5215L52.5391 11H53.9199V1.10156Z" fill="#3B5083"/>
</svg>
