<svg width="88" height="12" viewBox="0 0 88 12" fill="none" xmlns="http://www.w3.org/2000/svg">
<path d="M7.71094 4.32812H9.22852C8.89355 2.20215 7.23242 0.964844 5.14062 0.964844C2.57715 0.964844 0.683594 2.88574 0.683594 6.05078C0.683594 9.21582 2.56348 11.1367 5.14062 11.1367C7.32129 11.1367 8.91406 9.76953 9.22852 7.81445L7.71094 7.80078C7.45117 9.06543 6.39844 9.7627 5.1543 9.75586C3.45215 9.7627 2.18066 8.46387 2.17383 6.05078C2.18066 3.65137 3.44531 2.33887 5.1543 2.3457C6.41211 2.33887 7.47168 3.0498 7.71094 4.32812ZM19.4551 6.05078C19.4551 2.88574 17.5547 0.964844 14.998 0.964844C12.4209 0.964844 10.5273 2.88574 10.5273 6.05078C10.5273 9.20898 12.4209 11.1367 14.998 11.1367C17.5547 11.1367 19.4551 9.21582 19.4551 6.05078ZM12.0176 6.05078C12.0244 3.64453 13.2891 2.33887 14.998 2.3457C16.6934 2.33887 17.958 3.64453 17.9648 6.05078C17.958 8.45703 16.6934 9.7627 14.998 9.75586C13.2891 9.7627 12.0244 8.45703 12.0176 6.05078ZM21.1504 1.10156V11H22.5859V3.83594H22.668L25.5801 10.9863H26.7695L29.668 3.84961H29.7637V11H31.1992V1.10156H29.3672L26.2363 8.77148H26.1133L22.9824 1.10156H21.1504ZM33.2227 11H34.7266V7.52734H36.75C39.0469 7.52734 40.1816 6.13965 40.1816 4.31445C40.1816 2.48242 39.0537 1.10156 36.75 1.10156H33.2227V11ZM34.7266 6.24219V2.38672H36.5996C38.0557 2.39355 38.6641 3.19336 38.6641 4.31445C38.6641 5.42871 38.0557 6.24902 36.5996 6.24219H34.7266ZM50.3672 6.05078C50.3672 2.88574 48.4668 0.964844 45.9102 0.964844C43.333 0.964844 41.4395 2.88574 41.4395 6.05078C41.4395 9.20898 43.333 11.1367 45.9102 11.1367C48.4668 11.1367 50.3672 9.21582 50.3672 6.05078ZM42.9297 6.05078C42.9365 3.64453 44.2012 2.33887 45.9102 2.3457C47.6055 2.33887 48.8701 3.64453 48.877 6.05078C48.8701 8.45703 47.6055 9.7627 45.9102 9.75586C44.2012 9.7627 42.9365 8.45703 42.9297 6.05078ZM60.0469 1.10156H58.5703V8.34766H58.4746L53.457 1.10156H52.0625V11H53.5664V3.76758H53.6484L58.666 11H60.0469V1.10156ZM62.0703 11H68.332V9.70117H63.5742V6.67969H67.9492V5.39453H63.5742V2.40039H68.2773V1.10156H62.0703V11ZM78.1074 1.10156H76.6309V8.34766H76.5352L71.5176 1.10156H70.123V11H71.627V3.76758H71.709L76.7266 11H78.1074V1.10156ZM79.6387 2.40039H82.7285V11H84.2324V2.40039H87.3086V1.10156H79.6387V2.40039Z" fill="#3B5083"/>
</svg>
