<svg width="112" height="48" viewBox="0 0 112 48" fill="none" xmlns="http://www.w3.org/2000/svg">
<g filter="url(#filter0_i_1_283)">
<rect width="112" height="48" rx="24" fill="#324577"/>
</g>
<rect width="66" height="17" transform="translate(23 16)" fill="#324577"/>
<path d="M27 30.9635V18.0365C27 17.2058 27.9541 16.7373 28.6114 17.2452L36.976 23.7087C37.4941 24.109 37.4941 24.891 36.976 25.2913L28.6114 31.7548C27.9541 32.2627 27 31.7942 27 30.9635Z" fill="#617199"/>
<path d="M50.207 22.9316H52.1758C52.1484 21.1816 50.7061 19.9648 48.5117 19.9648C46.3447 19.9648 44.7588 21.1611 44.7656 22.959C44.7656 24.4082 45.791 25.2422 47.459 25.6523L48.5391 25.9121C49.6191 26.1787 50.2344 26.4932 50.2344 27.1699C50.2344 27.9082 49.5371 28.4141 48.457 28.4141C47.3633 28.4141 46.5703 27.9082 46.502 26.9102H44.5059C44.5674 29.0361 46.0918 30.1436 48.4844 30.1367C50.8975 30.1436 52.3057 28.9814 52.3125 27.1699C52.3057 25.5225 51.041 24.6611 49.3457 24.2715L48.457 24.0527C47.6025 23.8613 46.8643 23.54 46.8711 22.8223C46.8779 22.166 47.459 21.6875 48.498 21.6875C49.5029 21.6875 50.125 22.1455 50.207 22.9316ZM53.2695 21.7969H56.3047V30H58.3418V21.7969H61.377V20.1016H53.2695V21.7969ZM63.0859 30L63.8311 27.7168H67.4131L68.1582 30H70.3594L66.9414 20.1016H64.3027L60.8711 30H63.0859ZM64.3506 26.1172L65.5879 22.3301H65.6562L66.8936 26.1172H64.3506ZM71.4805 30H73.5312V26.4863H75.0967L76.9902 30H79.2598L77.1543 26.1514C78.2822 25.666 78.9043 24.6816 78.9043 23.3281C78.9043 21.3662 77.6123 20.1016 75.3633 20.1016H71.4805V30ZM73.5312 24.8184V21.7832H74.9805C76.1973 21.79 76.792 22.3301 76.7852 23.3281C76.792 24.3193 76.1973 24.8184 74.9805 24.8184H73.5312ZM79.9434 21.7969H82.9785V30H85.0156V21.7969H88.0508V20.1016H79.9434V21.7969Z" fill="#617199"/>
<defs>
<filter id="filter0_i_1_283" x="0" y="0" width="113" height="49" filterUnits="userSpaceOnUse" color-interpolation-filters="sRGB">
<feFlood flood-opacity="0" result="BackgroundImageFix"/>
<feBlend mode="normal" in="SourceGraphic" in2="BackgroundImageFix" result="shape"/>
<feColorMatrix in="SourceAlpha" type="matrix" values="0 0 0 0 0 0 0 0 0 0 0 0 0 0 0 0 0 0 127 0" result="hardAlpha"/>
<feOffset dx="1" dy="1"/>
<feGaussianBlur stdDeviation="0.5"/>
<feComposite in2="hardAlpha" operator="arithmetic" k2="-1" k3="1"/>
<feColorMatrix type="matrix" values="0 0 0 0 0 0 0 0 0 0 0 0 0 0 0 0 0 0 0.05 0"/>
<feBlend mode="normal" in2="shape" result="effect1_innerShadow_1_283"/>
</filter>
</defs>
</svg>
