<svg width="244" height="48" viewBox="0 0 244 48" fill="none" xmlns="http://www.w3.org/2000/svg">
<g clip-path="url(#clip0_1_335)">
<path d="M51.0578 12.2245V33.77C51.0393 37.5379 49.5121 41.1464 46.8081 43.811C44.1041 46.4757 40.4418 47.9811 36.6174 48.0001C32.1117 48.0001 28.4242 46.3005 25.5549 42.9014C22.6529 46.3025 18.9481 48.0021 14.4403 48.0001C10.6159 47.9811 6.95371 46.4757 4.24971 43.811C1.5457 41.1464 0.0184775 37.5379 0 33.77V12.2245H6.75859V33.77C6.76263 35.776 7.57325 37.6987 9.01298 39.1172C10.4527 40.5357 12.4043 41.3343 14.4403 41.3383C15.4467 41.355 16.4462 41.1716 17.379 40.799C18.3118 40.4264 19.1587 39.8724 19.8692 39.1699C20.5966 38.4753 21.1754 37.6441 21.5712 36.7254C21.9671 35.8068 22.1721 34.8192 22.174 33.8212V12.2245H28.9357V33.8212C28.9203 34.8171 29.1123 35.8055 29.4998 36.7255C29.8873 37.6454 30.462 38.4773 31.1886 39.1699C31.899 39.8724 32.746 40.4264 33.6788 40.799C34.6116 41.1716 35.611 41.355 36.6174 41.3383C38.654 41.3359 40.6065 40.5378 42.0466 39.119C43.4866 37.7001 44.2967 35.7765 44.2992 33.77V12.2245H51.0578Z" fill="white"/>
<path d="M76.4903 33.4507C77.2152 35.7013 78.6289 37.6758 80.5375 39.1037C82.4964 40.5646 84.8913 41.3451 87.3481 41.3233C89.4388 41.3059 91.5007 40.8414 93.3914 39.962C95.5108 39.0183 97.0646 37.8237 98.053 36.3781L103.635 40.1126C102.021 42.4677 99.6853 44.3681 96.6285 45.8137C93.7464 47.2239 90.5752 47.9666 87.3573 47.9851C84.9644 48.0218 82.5892 47.575 80.3785 46.6722C78.1677 45.7693 76.1682 44.4296 74.5034 42.7357C70.9514 39.2402 69.1764 35.0359 69.1785 30.1228C69.1825 25.3766 71.0982 20.826 74.5049 17.4701C77.9116 14.1143 82.5307 12.2277 87.3481 12.2245C92.3347 12.2245 96.6031 13.9733 100.153 17.4708C101.872 19.1091 103.233 21.0768 104.151 23.2527C105.07 25.4285 105.526 27.7666 105.493 30.1228C105.495 31.223 105.392 32.321 105.188 33.4026L76.4903 33.4507ZM87.3481 18.8712C84.8911 18.848 82.4958 19.6287 80.5375 21.0908C78.619 22.5298 77.2042 24.5228 76.4903 26.7919H98.1569C97.4443 24.5231 96.0304 22.53 94.1128 21.0908C92.1697 19.6331 89.7903 18.8523 87.3481 18.8712V18.8712Z" fill="white"/>
<path d="M123.128 47.9851V30.1228C123.09 27.7651 123.543 25.4246 124.459 23.246C125.375 21.0674 126.734 19.0968 128.453 17.4558C132.005 13.9682 136.273 12.2245 141.258 12.2245C146.08 12.2245 150.705 14.1118 154.114 17.4712C157.524 20.8306 159.44 25.387 159.44 30.1379V48.0001H152.678V30.1228C152.678 27.1451 151.477 24.2894 149.34 22.1838C147.203 20.0782 144.305 18.8953 141.282 18.8953C138.26 18.8953 135.361 20.0782 133.224 22.1838C131.087 24.2894 129.886 27.1451 129.886 30.1228V47.9851H123.128Z" fill="white"/>
<path d="M177.087 0H183.845V6.45703H177.087V0ZM177.087 12.2093H183.845V47.985H177.087V12.2093Z" fill="white"/>
<path d="M244 12.2245L228.637 44.6542C227.618 46.8728 225.859 47.9831 223.361 47.9851C220.862 47.9871 219.087 46.8768 218.036 44.6542L202.672 12.2245H210.149L222.492 38.2604C222.568 38.4254 222.69 38.5655 222.844 38.6638C222.999 38.762 223.178 38.8143 223.362 38.8143C223.546 38.8143 223.726 38.762 223.88 38.6638C224.034 38.5655 224.156 38.4254 224.232 38.2604L236.575 12.2245H244Z" fill="white"/>
</g>
<defs>
<clipPath id="clip0_1_335">
<rect width="244" height="48" fill="white"/>
</clipPath>
</defs>
</svg>
